<svg xmlns="http://www.w3.org/2000/svg" viewBox="0 0 3295 1936"><defs><style>.cls-1{fill:#c9c9c9;}.cls-2{fill:#333;}.cls-15,.cls-3{fill:#666;}.cls-4{fill:#b3b3b3;}.cls-5{fill:#f2f2f2;}.cls-6{fill:gray;}.cls-7{fill:#cedc00;}.cls-8{fill:#999;}.cls-9{fill:#00a82d;}.cls-10{fill:#4d4d4d;}.cls-11{fill:#126626;}.cls-12{opacity:0.3;}.cls-13{opacity:0.1;}.cls-14{opacity:0.2;}.cls-15{opacity:0.67;}.cls-16{fill:#ccc;}</style></defs><title>404_version_09_26_2019</title><g id="screen"><polygon class="cls-1" points="91.71 883.25 1057.77 1441 1943.06 929.73 977.27 371.97 91.71 883.25"/><polygon class="cls-2" points="91.71 1007.19 91.71 883.25 1057.72 1441.09 1057.77 1564.95 91.71 1007.19"/><polygon class="cls-3" points="1057.77 1441 1057.92 1564.86 1943.02 1053.32 1943.21 929.64 1057.77 1441"/><polygon class="cls-4" points="252.72 821.28 977.27 402.96 978.13 433.45 279.56 836.77 252.72 821.28"/><polygon class="cls-5" points="279.56 836.77 1165.11 1348.13 1862.82 945.22 978.13 433.45 279.56 836.77"/><polygon class="cls-6" points="977.27 402.96 977.27 433.94 1862.82 945.22 1889.66 929.73 977.27 402.96"/><polyline class="cls-7" points="1245.62 1301.57 1272.11 1285.87 1299.16 1301.57 1272.34 1317.06 1245.62 1301.57"/><polygon class="cls-5" points="628.52 1069.23 574.74 1099.9 628.52 1131.08 682.51 1099.9 628.52 1069.23"/></g><g id="four_oh_four" data-name="four oh four"><polygon class="cls-1" points="91.71 883.25 1057.77 1441 1943.06 929.73 977.27 371.97 91.71 883.25"/><polygon class="cls-6" points="91.71 1007.19 91.71 883.25 1057.72 1441.09 1057.77 1564.95 91.71 1007.19"/><polygon class="cls-8" points="1057.77 1441 1057.92 1564.86 1943.02 1053.32 1943.21 929.64 1057.77 1441"/><polygon class="cls-4" points="252.72 821.28 977.27 402.96 978.13 433.45 279.56 836.77 252.72 821.28"/><polygon class="cls-5" points="279.49 836.82 1165.04 1348.17 1862.75 945.27 978.06 433.5 279.49 836.82"/><polygon class="cls-6" points="977.27 402.96 977.27 433.94 1862.82 945.22 1889.66 929.73 977.27 402.96"/><polygon class="cls-5" points="628.52 1069.23 574.74 1099.9 628.52 1131.08 682.51 1099.9 628.52 1069.23"/><polygon class="cls-9" points="708.92 681.71 521.07 790.18 601.5 836.88 1057.7 573.5 977.24 526.77 789.35 635.28 708.7 588.72 896.75 480.31 815.7 434.06 547.83 588.99 708.92 681.71"/><polygon class="cls-10" points="521.07 790.18 601.51 836.66 601.58 960.6 521.07 914.12 521.07 790.18"/><polygon points="1057.71 573.5 1057.77 697.29 601.58 960.6 601.51 836.88 1057.71 573.5"/><polygon class="cls-10" points="547.84 589.55 547.81 712.71 601.51 743.7 708.92 681.71 547.84 589.55"/><polygon points="896.77 480.31 896.76 573.27 789.35 635.28 710.01 588.91 896.77 480.31"/><polygon points="601.76 836.64 628.63 821.16 628.45 945.15 601.57 960.6 601.76 836.64"/><path class="cls-7" d="M1084.54,588.71,628.35,852.21,869.86,991.65l456.26-263.27ZM789.23,852.09l295.31-170.42,80.51,46.48L869.69,898.5Z"/><polygon class="cls-10" points="628.52 852.04 870.04 991.48 869.93 1115.67 628.41 975.99 628.52 852.04"/><polygon points="1084.54 681.87 1084.54 774.83 869.69 898.71 789.23 852.3 1084.54 681.87"/><polygon class="cls-10" points="1165.05 728.32 1084.54 681.84 1084.54 774.8 1165.05 728.32"/><polygon points="869.93 1115.67 869.86 991.6 1326.12 728.34 1326.06 852.26 869.93 1115.67"/><polygon class="cls-9" points="1245.55 991.6 1057.71 1100.06 1138.21 1146.53 1594.41 883.15 1513.9 836.67 1326.02 945.07 1245.55 898.64 1433.4 790.19 1352.89 743.71 1084.54 898.64 1245.55 991.6"/><polygon points="1594.41 883.15 1593.71 1007.1 1138.21 1270.68 1138.21 1146.53 1594.41 883.15"/><polygon class="cls-10" points="1084.54 898.64 1084.45 1022.75 1138.28 1053.54 1245.55 991.6 1084.54 898.64"/><polygon points="1433.4 790.19 1433.37 883.16 1326.02 945.07 1245.55 898.64 1433.4 790.19"/><polygon points="1138.22 1146.53 1165.06 1131.05 1165.06 1254.92 1138.22 1270.39 1138.22 1146.53"/><polygon class="cls-10" points="1057.72 1100.05 1138.21 1146.54 1138.21 1270.48 1057.71 1224.01 1057.72 1100.05"/><path class="cls-7" d="M762.52,1487.57l.26-.15L548,1363.61l134-77.45-26.72-15.56-134.24,77.51-80.62-46.42.07,0-26.84-15.49-107.34,62h0l-26.83,15.5,27,15.49,80.64,46.33,26.68,15.71,107.23-62,214.68,123.86,22.82-13.17-452.1,261,26.83,15.49,456.12-263.3Zm-348.86-77.46-80.45-46.45,80.4-46.47,80.49,46.47Z"/><polygon class="cls-9" points="682.09 1317.19 682.01 1286.16 547.98 1363.61 574.67 1379.12 682.09 1317.19"/><polygon class="cls-9" points="359.99 1379.12 413.48 1348.23 413.61 1317.19 333.21 1363.66 359.99 1379.12"/><polygon class="cls-11" points="413.66 1317.2 413.66 1348.19 467.44 1379.11 494.17 1363.68 413.66 1317.2"/><polygon class="cls-11" points="279.49 1363.63 279.49 1394.61 413.48 1471.98 413.77 1441.16 279.49 1363.63"/><polygon class="cls-11" points="521.11 1410.13 521.11 1379.14 735.68 1503.07 708.93 1518.51 521.11 1410.13"/><polygon class="cls-11" points="306.39 1750.87 306.39 1781.86 333.23 1797.35 333.23 1766.36 306.39 1750.87"/><polygon class="cls-9" points="413.48 1471.98 521.11 1410.13 521.11 1379.14 413.77 1441.16 413.48 1471.98"/><polygon class="cls-9" points="333.23 1797.35 789.35 1534.01 789.35 1503.02 333.23 1766.36 333.23 1797.35"/><polygon class="cls-7" points="333.42 743.7 91.71 604.37 386.9 433.94 118.55 279.01 145.38 263.52 440.57 433.94 145.38 604.37 360.1 728.34 333.42 743.7"/><path class="cls-11" d="M91.71,635.36v-31L333.42,743.7l-27,15.6Z"/><polygon class="cls-9" points="172.22 619.86 440.57 464.93 440.57 433.94 145.38 604.37 172.22 619.86"/><polygon class="cls-11" points="145.38 294.51 145.38 -46.34 118.55 -61.84 118.55 279.01 118.55 310 360.06 449.44 386.9 433.94 145.38 294.51"/><polygon class="cls-7" points="172.22 -61.84 172.22 279.01 145.38 294.51 145.38 -46.34 172.22 -61.84"/><polygon class="cls-1" points="2077.5 1533.96 2184.84 1471.99 2292.18 1533.96 2184.84 1595.94 2077.5 1533.96"/><polygon class="cls-7" points="2077.5 1533.96 2077.5 1657.91 2184.84 1719.88 2184.84 1595.94 2077.5 1533.96"/><polygon class="cls-6" points="2292.18 1533.96 2292.18 1657.91 2184.84 1719.88 2184.84 1595.94 2292.18 1533.96"/><polygon class="cls-12" points="2292.18 1533.96 2292.18 1657.91 2184.84 1719.88 2184.84 1595.94 2292.18 1533.96"/><polygon class="cls-6" points="2077.5 1533.96 2077.5 1657.91 2184.84 1719.88 2184.84 1595.94 2077.5 1533.96"/><polygon class="cls-7" points="2211.68 1611.43 2264.91 1580.05 2936.22 1967.77 2882.55 1998.76 2211.68 1611.43"/><polygon class="cls-11" points="2211.68 1611.43 2211.68 1673.4 2882.55 2060.73 2882.55 1998.76 2211.68 1611.43"/><polygon class="cls-7" points="1433.34 635.36 1701.81 480.43 1728.65 495.92 1460.3 650.93 1433.34 635.36"/><polygon class="cls-11" points="1701.81 418.45 1701.81 480.43 1728.65 495.92 1728.65 433.45 1701.81 418.45"/><polygon class="cls-7" points="1889.66 310 1916.49 325.49 1728.65 434.01 1701.81 418.45 1889.66 310"/><polygon class="cls-9" points="1755.5 511.41 1486.99 666.34 1460.3 650.93 1755.48 480.43 1755.5 511.41"/><polygon class="cls-9" points="1916.49 356.48 1916.49 325.49 1728.65 434.01 1728.65 495.92 1755.48 480.43 1755.48 449.44 1916.49 356.48"/><polygon class="cls-9" points="2023.83 263.53 2023.83 294.52 2560.47 -15.36 2560.47 -46.34 2023.83 263.53"/><polygon class="cls-11" points="1997 279.02 1997 248.04 2023.83 263.53 2023.83 294.52 1997 279.02"/><polygon class="cls-11" points="2184.84 201.79 2184.84 170.56 2479.96 340.95 2480.03 371.99 2184.84 201.79"/><polygon class="cls-7" points="2560.47 -46.34 2533.63 -61.84 1997 248.04 2023.83 263.53 2184.66 170.66 2479.96 340.95 2506.86 325.49 2211.5 155.17 2560.47 -46.34"/><polygon class="cls-9" points="2506.86 356.48 2506.8 325.45 2480.03 340.99 2480.03 371.97 2506.86 356.48"/><polygon class="cls-11" points="2560.53 387.47 2560.53 418.45 2775.27 542.43 2801.67 526.69 2560.53 387.47"/><polygon class="cls-7" points="2802.05 588.88 2802.05 557.89 2775.21 573.15 2775.21 604.37 2802.05 588.88"/><polygon class="cls-13" points="2506.86 356.48 2506.8 325.45 2480.03 340.99 2480.03 371.97 2506.86 356.48"/><polygon class="cls-7" points="3472.93 232.53 2802.05 619.86 2748.38 588.88 2840.26 535.92 2840.18 535.87 2855.72 526.9 2587.37 371.97 2560.53 387.47 2802.12 526.95 2694.71 588.88 2802.05 650.85 3499.76 248.03 3472.93 232.53"/><polygon class="cls-11" points="2694.71 619.86 2802.05 681.84 2802.05 650.85 2694.71 588.88 2694.71 619.86"/><polygon class="cls-9" points="3499.76 279.01 3499.76 248.03 2802.05 650.85 2802.05 681.84 3499.76 279.01"/><polygon class="cls-9" points="2855.72 557.89 2855.72 526.9 2748.38 588.88 2775.21 604.37 2855.72 557.89"/><polygon class="cls-9" points="1956.75 317.8 1956.75 286.81 1929.92 302.27 1929.92 333.29 1956.75 317.8"/><polygon class="cls-9" points="1983.59 302.27 1983.59 271.29 1956.75 286.81 1956.75 317.76 1983.59 302.27"/><polygon class="cls-7" points="1929.92 271.29 1956.75 286.81 1929.92 302.27 1929.92 271.29"/><polygon class="cls-7" points="1956.75 317.76 1983.53 333.29 1983.59 302.27 1956.75 286.81 1956.75 317.76"/><polygon class="cls-9" points="272.9 1816.7 272.89 1785.72 246.06 1801.18 246.06 1832.2 272.9 1816.7"/><polygon class="cls-9" points="299.73 1801.18 299.73 1770.19 272.89 1785.72 272.89 1816.67 299.73 1801.18"/><polygon class="cls-7" points="246.06 1770.19 272.89 1785.72 246.06 1801.18 246.06 1770.19"/><polygon class="cls-7" points="272.89 1816.67 299.68 1832.2 299.73 1801.18 272.89 1785.72 272.89 1816.67"/><polygon class="cls-9" points="2528.3 384.19 2528.3 353.2 2501.47 368.66 2501.47 399.68 2528.3 384.19"/><polygon class="cls-9" points="2555.14 368.66 2555.14 337.68 2528.3 353.2 2528.3 384.16 2555.14 368.66"/><polygon class="cls-7" points="2501.47 337.68 2528.3 353.2 2501.47 368.66 2501.47 337.68"/><polygon class="cls-7" points="2528.3 384.16 2555.08 399.68 2555.14 368.66 2528.3 353.2 2528.3 384.16"/><polygon class="cls-14" points="172.22 -61.84 172.22 279.01 145.38 294.51 145.38 -46.34 172.22 -61.84"/></g><g id="cord"><path class="cls-7" d="M306.39,2029.78l.27-.15L91.85,1905.82l134-77.45-26.73-15.56-134.24,77.5L-15.7,1843.9l.07,0-26.83-15.49-107.34,62h0l-26.84,15.49,27,15.5L-69,1967.65l26.68,15.71,107.23-62,214.68,123.87,22.82-13.17L-42.46,2231.19l26.83,15.49,348.86-201.41Zm-348.85-77.47-80.46-46.45,80.4-46.46L38,1905.87Z"/><polygon class="cls-9" points="225.97 1859.4 225.89 1828.37 91.85 1905.82 118.55 1921.33 225.97 1859.4"/><polygon class="cls-11" points="-42.47 1859.41 -42.47 1890.39 11.32 1921.32 38.04 1905.89 -42.47 1859.41"/><polygon class="cls-11" points="64.99 1952.34 64.99 1921.35 279.56 2045.27 252.8 2060.72 64.99 1952.34"/><polygon class="cls-9" points="-42.64 2014.18 64.99 1952.34 64.99 1921.35 -42.35 1983.36 -42.64 2014.18"/><polygon class="cls-9" points="1541.01 1347.92 1728.65 1239.59 1621.31 1177.62 1594.43 1193.09 1674.94 1239.57 1513.94 1332.55 1541.01 1347.92"/><polygon class="cls-7" points="1728.65 1239.59 1728.65 1270.58 1567.67 1363.54 1541.01 1347.92 1728.65 1239.59"/><polygon class="cls-9" points="1728.65 1239.59 1728.65 1270.58 1567.67 1363.54 1541.01 1347.92 1728.65 1239.59"/><polygon class="cls-9" points="1594.43 1193.09 1594.43 1224.12 1648.14 1255.09 1674.94 1239.57 1594.43 1193.09"/><polygon class="cls-9" points="1916.41 1440.85 2023.75 1378.88 2023.75 1502.62 1916.41 1564.8 1916.41 1440.85"/><polygon points="1916.41 1440.85 1862.74 1409.86 1970.12 1347.92 2023.75 1378.88 1916.41 1440.85"/><polygon points="1862.74 1409.86 1916.41 1440.85 1916.41 1564.8 1862.74 1534.01 1862.74 1409.86"/><polygon class="cls-9" points="1487.13 1348.05 1513.94 1332.55 1701.73 1440.85 1809.07 1378.88 1862.74 1409.86 1862.74 1440.85 1809.07 1409.86 1701.73 1471.84 1487.13 1348.05"/><polygon class="cls-7" points="1487.13 1379.03 1487.13 1348.05 1701.73 1471.85 1701.73 1502.84 1487.13 1379.03"/><polygon class="cls-7" points="1701.73 1502.82 1701.73 1471.84 1809.07 1409.86 1809.07 1440.85 1701.73 1502.82"/><polygon class="cls-7" points="1809.07 1440.85 1862.74 1471.84 1862.74 1440.85 1809.07 1409.86 1809.07 1440.85"/><polygon class="cls-9" points="1916.41 1440.85 2023.75 1378.88 2023.75 1502.62 1916.41 1564.8 1916.41 1440.85"/><path class="cls-7" d="M1988.53,1482.66l-45.28-26v62l42.12,24.19a7.93,7.93,0,0,0,11.88-6.88v-38.26A17.36,17.36,0,0,0,1988.53,1482.66Zm-5.28,26.57a9.67,9.67,0,0,1-14.37,8.45h0a24.55,24.55,0,0,1-12.63-21.47v-.11a9.67,9.67,0,0,1,14.36-8.46,24.57,24.57,0,0,1,12.64,21.47Z"/><path class="cls-7" d="M2042,1451.52l-45.28-26v62l42.13,24.19a7.93,7.93,0,0,0,11.87-6.88v-38.26A17.34,17.34,0,0,0,2042,1451.52Zm-5.28,26.57a9.67,9.67,0,0,1-14.37,8.45h0a24.57,24.57,0,0,1-12.63-21.47V1465a9.67,9.67,0,0,1,14.37-8.46,24.56,24.56,0,0,1,12.63,21.47Z"/><polygon class="cls-1" points="1916.41 1440.85 1862.74 1409.86 1970.12 1347.92 2023.75 1378.88 1916.41 1440.85"/><polygon class="cls-6" points="1862.74 1409.86 1916.41 1440.85 1916.41 1564.8 1862.74 1534.01 1862.74 1409.86"/><polygon class="cls-7" points="1809.07 1378.88 1701.73 1440.85 1540.74 1348.01 1728.65 1239.59 1621.31 1177.62 1594.43 1193.09 1674.94 1239.57 1504.72 1337.8 1504.8 1337.84 1487.13 1348.05 1701.73 1471.84 1809.07 1409.86 1862.74 1440.85 1862.74 1409.86 1809.07 1378.88"/><polygon class="cls-11" points="1487.13 1379.03 1487.13 1348.05 1701.73 1471.85 1701.73 1502.84 1487.13 1379.03"/><polygon class="cls-9" points="1701.73 1502.82 1701.73 1471.84 1809.07 1409.86 1809.07 1440.85 1701.73 1502.82"/><polygon class="cls-11" points="1809.07 1440.85 1862.74 1471.84 1862.74 1440.85 1809.07 1409.86 1809.07 1440.85"/><polygon class="cls-11" points="1594.43 1193.09 1594.43 1224.12 1648.14 1255.09 1674.94 1239.57 1594.43 1193.09"/></g><g id="dust_and_particles" data-name="dust and particles"><polygon class="cls-1" points="2380.89 547.08 2415.04 566.8 2449.19 547.08 2466.27 556.94 2483.35 547.08 2517.5 566.8 2551.66 547.08 2517.5 527.36 2551.66 507.64 2534.58 497.78 2551.66 487.92 2500.43 458.34 2449.19 487.92 2483.35 507.64 2449.19 527.36 2380.89 487.92 2363.81 497.78 2397.96 517.5 2363.81 537.22 2380.89 547.08"/><polygon class="cls-3" points="2363.81 517.5 2380.73 527.21 2397.96 517.5 2363.81 497.78 2363.81 517.5"/><polygon class="cls-3" points="2363.81 556.94 2363.81 537.22 2415.04 566.8 2415.04 586.51 2363.81 556.94"/><polygon class="cls-1" points="2449.19 547.08 2449.19 566.8 2466.27 576.65 2466.27 556.94 2449.19 547.08"/><polygon class="cls-1" points="2483.35 566.8 2517.5 586.51 2517.5 566.8 2483.35 547.08 2483.35 566.8"/><polygon class="cls-1" points="2449.19 507.64 2449.19 487.92 2483.35 507.64 2466.27 517.5 2449.19 507.64"/><polygon class="cls-1" points="2551.66 527.36 2534.58 537.22 2517.5 527.36 2551.66 507.64 2551.66 527.36"/><polygon class="cls-15" points="2551.66 527.36 2534.58 537.22 2517.5 527.36 2551.66 507.64 2551.66 527.36"/><polygon class="cls-1" points="2415.04 586.51 2449.19 566.8 2449.19 547.08 2415.04 566.8 2415.04 586.51"/><polygon class="cls-1" points="2466.27 576.65 2483.35 566.8 2483.35 547.08 2466.27 556.94 2466.27 576.65"/><polygon class="cls-1" points="2517.5 586.51 2551.66 566.8 2551.66 547.08 2517.5 566.8 2517.5 586.51"/><polygon class="cls-1" points="2551.66 487.92 2551.66 507.64 2534.58 497.78 2551.66 487.92"/><polygon class="cls-15" points="2415.04 586.51 2449.19 566.8 2449.19 547.08 2415.04 566.8 2415.04 586.51"/><polygon class="cls-15" points="2466.27 576.65 2483.35 566.8 2483.35 547.08 2466.27 556.94 2466.27 576.65"/><polygon class="cls-15" points="2517.5 586.51 2551.66 566.8 2551.66 547.08 2517.5 566.8 2517.5 586.51"/><polygon class="cls-15" points="2551.66 487.92 2551.66 507.64 2534.58 497.78 2551.66 487.92"/><path class="cls-3" d="M2093.74,1236.32l-11.95,6.93-11.84-6.87a23.92,23.92,0,0,0-24,0l-11.94,6.89-12-7a23.55,23.55,0,0,0-23.53,0l-.09,0a8,8,0,0,0,0,13.84l22.74,13.14a25.78,25.78,0,0,0,25.82,0l10.93-6.31,10.92,6.3a25.82,25.82,0,0,0,25.8,0l10.91-6.3,11.86-6.83a8,8,0,0,0,0-13.85l0,0A23.53,23.53,0,0,0,2093.74,1236.32Z"/><path class="cls-3" d="M2175,307.41l-52,0s-.26,11.13,0,11.14h0a5.16,5.16,0,0,0,2.61,4.5l3.53,2-6.23.74V336.7h0a5.08,5.08,0,0,0,2.55,4.3h0a15.86,15.86,0,0,0,15.85,0l7.68-4.43,7.95,4.59a15.27,15.27,0,0,0,15.3,0,5.24,5.24,0,0,0,2.62-5h0V325.81l-5.79-.84,3.26-1.88a5.19,5.19,0,0,0,2.61-4.66h0Zm-26,11.15-.09-.05h.18Z"/><path class="cls-1" d="M2125.58,302.9h0a15.58,15.58,0,0,1,15.57,0l7.82,4.51,7.85-4.53a15.49,15.49,0,0,1,15.5,0h0a5.23,5.23,0,0,1,0,9.06l-7.75,4.48,7.65,4.41a5.31,5.31,0,0,1,0,9.19h0a15.31,15.31,0,0,1-15.3,0l-8-4.59-7.68,4.43a15.86,15.86,0,0,1-15.85,0h0a5.12,5.12,0,0,1,0-8.87l7.93-4.57-7.79-4.49A5.22,5.22,0,0,1,2125.58,302.9Z"/><path class="cls-3" d="M917.63,1637.46h0a12.83,12.83,0,0,1,12.85,0l6.46,3.73,6.48-3.75a12.8,12.8,0,0,1,12.81,0h0a4.33,4.33,0,0,1,0,7.49l-6.4,3.7,6.31,3.64a4.38,4.38,0,0,1,0,7.59h0a12.66,12.66,0,0,1-12.63,0l-6.57-3.79-6.34,3.66a13.13,13.13,0,0,1-13.09,0h0a4.23,4.23,0,0,1,0-7.33l6.54-3.77-6.42-3.72A4.3,4.3,0,0,1,917.63,1637.46Z"/><polygon class="cls-3" points="915.39 1647.21 915.39 1656.17 929.84 1655.88 936.89 1652.35 952.35 1659.17 958.32 1655.74 958.32 1647.17 939.04 1644.4 915.39 1647.21"/><path class="cls-3" d="M958.39,1641.08V1632H915.47s-.21,9.19,0,9.21S958.39,1641.08,958.39,1641.08Z"/><path class="cls-16" d="M917.63,1628.25h0a12.83,12.83,0,0,1,12.85,0l6.46,3.73,6.48-3.74a12.8,12.8,0,0,1,12.81,0h0a4.32,4.32,0,0,1,0,7.48l-6.4,3.7,6.31,3.65a4.37,4.37,0,0,1,0,7.58h0a12.61,12.61,0,0,1-12.63,0l-6.57-3.79-6.34,3.66a13.08,13.08,0,0,1-13.09,0h0a4.22,4.22,0,0,1,0-7.32l6.54-3.78-6.42-3.71A4.31,4.31,0,0,1,917.63,1628.25Z"/><path class="cls-3" d="M2765.72,1566.54h0a42.12,42.12,0,0,1,42.16,0l21.19,12.23,21.26-12.28a42,42,0,0,1,42,0h0a14.17,14.17,0,0,1,0,24.55l-21,12.13,20.72,12a14.36,14.36,0,0,1,0,24.88h0a41.45,41.45,0,0,1-41.44,0l-21.54-12.44-20.8,12a42.92,42.92,0,0,1-42.93,0h0a13.86,13.86,0,0,1,0-24l21.46-12.39L2765.72,1591A14.12,14.12,0,0,1,2765.72,1566.54Z"/><polygon class="cls-3" points="2758.4 1598.52 2758.4 1627.93 2805.78 1626.95 2828.91 1615.37 2879.6 1637.74 2899.2 1626.52 2899.2 1598.41 2835.94 1589.32 2758.4 1598.52"/><path class="cls-3" d="M2899.42,1578.41v-29.84l-140.76,0s-.71,30.14,0,30.19S2899.42,1578.41,2899.42,1578.41Z"/><path class="cls-16" d="M2765.72,1536.34h0a42.17,42.17,0,0,1,42.16,0l21.19,12.23,21.26-12.27a42,42,0,0,1,42,0h0a14.17,14.17,0,0,1,0,24.55l-21,12.13,20.72,12a14.36,14.36,0,0,1,0,24.88h0a41.45,41.45,0,0,1-41.44,0l-21.54-12.44-20.8,12a42.92,42.92,0,0,1-42.93,0h0a13.86,13.86,0,0,1,0-24L2786.8,1573l-21.08-12.18A14.12,14.12,0,0,1,2765.72,1536.34Z"/><polyline class="cls-3" points="1994.38 1222.23 1994.38 1243.54 2121.33 1243.54 2121.33 1222.23 1994.38 1222.82"/><path class="cls-1" d="M2093.74,1215.59l-11.95,6.93-11.84-6.87a23.92,23.92,0,0,0-24,0l-11.94,6.89-12-7a23.5,23.5,0,0,0-23.53,0l-.09,0a8,8,0,0,0,0,13.83l22.74,13.15a25.81,25.81,0,0,0,25.82,0l10.93-6.31,10.92,6.3a25.79,25.79,0,0,0,25.8,0l10.91-6.29,11.86-6.84a8,8,0,0,0,0-13.84l0,0A23.53,23.53,0,0,0,2093.74,1215.59Z"/><path class="cls-3" d="M1384.76,1803.37l-32.7,19-32.4-18.8a65.53,65.53,0,0,0-65.66-.08l-32.67,18.86-33-19a64.4,64.4,0,0,0-64.39,0l-.24.13a21.86,21.86,0,0,0,0,37.86l62.23,36a70.64,70.64,0,0,0,70.67,0l29.93-17.28,29.87,17.24a70.67,70.67,0,0,0,70.62,0L1416.9,1860l32.45-18.71a21.87,21.87,0,0,0,0-37.89l-.11-.06A64.37,64.37,0,0,0,1384.76,1803.37Z"/><polyline class="cls-3" points="1112.84 1764.81 1112.84 1823.13 1460.28 1823.13 1460.28 1764.81 1112.84 1766.42"/><path class="cls-16" d="M1384.76,1746.64l-32.7,19-32.4-18.81a65.51,65.51,0,0,0-65.66-.07l-32.67,18.86-33-19a64.4,64.4,0,0,0-64.39,0l-.24.14a21.86,21.86,0,0,0,0,37.86l62.23,36a70.62,70.62,0,0,0,70.67,0l29.93-17.27,29.87,17.23a70.62,70.62,0,0,0,70.62,0l29.85-17.24,32.45-18.71a21.86,21.86,0,0,0,0-37.88l-.11-.07A64.39,64.39,0,0,0,1384.76,1746.64Z"/><path class="cls-3" d="M3223.91,712.39h-12.54V722.8h-46.28V712.39h-14.16v20.36h0c-.32,5.65,3.21,11.35,10.63,15.64,14.22,8.2,37.48,8.2,51.69,0,7.42-4.29,11-10,10.63-15.64h0Z"/><path class="cls-3" d="M3174.65,719.76a21.29,21.29,0,0,0,2.35,1.14,29.48,29.48,0,0,1,20.81,0,20.46,20.46,0,0,0,2.35-1.14c7-4,7-10.68,0-14.73s-18.49-4-25.51,0S3167.64,715.71,3174.65,719.76Z"/><path class="cls-16" d="M3213.25,697.47c-14.22-8.2-37.47-8.2-51.69,0s-14.21,21.64,0,29.84,37.48,8.21,51.69,0S3227.46,705.68,3213.25,697.47Zm-13.09,22.29c-7,4-18.49,4-25.51,0s-7-10.68,0-14.73,18.5-4,25.51,0S3207.17,715.71,3200.16,719.76Z"/><path class="cls-3" d="M986.82,1068.69H977v8.12H940.9v-8.12H929.84v15.89h0c-.26,4.41,2.5,8.86,8.3,12.21,11.09,6.4,29.25,6.4,40.35,0,5.79-3.35,8.55-7.8,8.29-12.21h0Z"/><path class="cls-3" d="M948.37,1074.44a14.73,14.73,0,0,0,1.83.88,23.05,23.05,0,0,1,16.24,0,14.87,14.87,0,0,0,1.84-.88c5.47-3.17,5.47-8.34,0-11.5s-14.44-3.16-19.91,0S942.89,1071.27,948.37,1074.44Z"/><path class="cls-16" d="M978.5,1057c-11.1-6.41-29.26-6.41-40.35,0s-11.1,16.89,0,23.3,29.25,6.4,40.35,0S989.59,1063.45,978.5,1057Zm-10.22,17.4c-5.48,3.16-14.44,3.16-19.91,0s-5.48-8.34,0-11.5,14.43-3.16,19.91,0S973.75,1071.27,968.28,1074.44Z"/><path class="cls-6" d="M174.62,772.13l-9.74,5.64-9.64-5.59a19.51,19.51,0,0,0-19.55,0L126,777.77l-9.81-5.67a19.19,19.19,0,0,0-19.17,0l-.07,0a6.51,6.51,0,0,0,0,11.27l18.53,10.71a21,21,0,0,0,21,0l8.91-5.14,8.89,5.13a21,21,0,0,0,21,0l8.89-5.13,9.66-5.57a6.51,6.51,0,0,0,0-11.28l0,0A19.17,19.17,0,0,0,174.62,772.13Z"/><polyline class="cls-6" points="93.66 760.65 93.66 778.01 197.1 778.01 197.1 760.65 93.66 761.13"/><path class="cls-1" d="M174.62,755.24l-9.74,5.65-9.64-5.6a19.51,19.51,0,0,0-19.55,0L126,760.88l-9.81-5.67a19.19,19.19,0,0,0-19.17,0l-.07,0a6.51,6.51,0,0,0,0,11.27l18.53,10.72a21,21,0,0,0,21,0l8.91-5.14,8.89,5.13a21.06,21.06,0,0,0,21,0l8.89-5.14,9.66-5.57a6.51,6.51,0,0,0,0-11.28l0,0A19.17,19.17,0,0,0,174.62,755.24Z"/><path class="cls-3" d="M1652.1,249.74l-65,29.32-9,1.23a5,5,0,0,0-4.08,4.67l-10.32,4.65v25.94a5,5,0,0,0,0,1.55v0h0a4.75,4.75,0,0,0,2.33,3.36l12.14,7a13,13,0,0,0,13,0l25.43-14.69,17.76,10.26a5.39,5.39,0,0,0,8.08-4.66l9.49-41a4.4,4.4,0,0,0,.12-1Z"/><polyline class="cls-3" points="1574.06 258.97 1574.06 284.74 1622.94 271.86 1574.59 258.97"/><path class="cls-1" d="M1652.12,250.19a5.88,5.88,0,0,0-7-5.77l-67,9.16a5.08,5.08,0,0,0-1.55,9.39l14.2,8.2-24.71,14.26a4.82,4.82,0,0,0,0,8.35l12.14,7a13,13,0,0,0,13,0l25.43-14.68,17.76,10.26c3.48,2,7.35-.37,8.07-4.28Z"/><path class="cls-3" d="M2978.33,136l-27.16,12.25-23.4-6.23h-.35v16.81h0a.77.77,0,0,1,0,.15l-6.73,3v16.92a3.49,3.49,0,0,0,0,1v0h0a3.07,3.07,0,0,0,1.52,2.19l7.92,4.57a8.47,8.47,0,0,0,8.49,0l16.59-9.58,11.58,6.7a3.52,3.52,0,0,0,5.28-3l6.19-26.74a3.08,3.08,0,0,0,.08-.68Z"/><path class="cls-1" d="M2978.35,136.24a3.83,3.83,0,0,0-4.59-3.76l-43.67,6a3.31,3.31,0,0,0-1,6.12l9.26,5.35-16.12,9.31a3.15,3.15,0,0,0,0,5.45l7.92,4.57a8.52,8.52,0,0,0,8.49,0l16.59-9.58,11.59,6.69c2.27,1.31,4.79-.24,5.26-2.79Z"/><polygon class="cls-1" points="105.02 1374.99 185.11 1421.7 212.36 1405.97 185.53 1390.48 212.34 1374.99 185.53 1359.49 212.36 1344 185.53 1328.51 105.02 1374.99"/><polygon class="cls-6" points="105.02 1374.99 105.02 1405.97 185.53 1452.45 212.36 1436.96 212.36 1405.97 185.53 1421.46 105.02 1374.99"/><polygon class="cls-6" points="185.53 1390.48 212.36 1405.97 212.34 1374.99 185.53 1390.48"/><polygon class="cls-6" points="185.53 1359.49 212.34 1374.99 212.36 1344 185.53 1359.49"/><path class="cls-3" d="M1487.08,1508.52h-34.44v7.5l-16.61-4.48c1.51-8.3-3.21-16.92-14.17-23.24-19.27-11.13-50.8-11.13-70.07,0-10.73,6.19-15.48,14.59-14.25,22.74l-12,3.54v-6.06h-38.91v55.92h0c-.9,15.51,8.82,31.19,29.2,43,39,22.54,102.93,22.54,142,0,20.39-11.77,30.1-27.45,29.2-43h.08Zm-161.56,28.57v-11.23l17.56-3.92a36.68,36.68,0,0,0,8.71,6.81,54.21,54.21,0,0,0,6.45,3.13c17-7,40.13-7,57.17,0a53.48,53.48,0,0,0,6.45-3.13,36.34,36.34,0,0,0,8.86-7l21.92,5.91v9.4Z"/><path class="cls-16" d="M1457.81,1467.54c-39-22.54-102.93-22.54-142,0s-39,59.43,0,82,102.93,22.54,142,0S1496.85,1490.08,1457.81,1467.54Zm-36,61.21c-19.27,11.12-50.8,11.12-70.07,0s-19.26-29.33,0-40.45,50.8-11.13,70.07,0S1441.13,1517.62,1421.86,1528.75Z"/><path class="cls-3" d="M1227.31,250.13H1209.7V254l-8.49-2.28c.77-4.25-1.64-8.65-7.24-11.89-9.86-5.68-26-5.68-35.82,0-5.49,3.17-7.92,7.46-7.29,11.63l-6.15,1.81v-3.1h-19.89v28.59h0c-.46,7.93,4.51,15.94,14.93,22,20,11.52,52.62,11.52,72.58,0,10.42-6,15.39-14,14.93-22h0Zm-82.6,14.61V259l9-2a18.57,18.57,0,0,0,4.46,3.48,26.37,26.37,0,0,0,3.29,1.6,41.44,41.44,0,0,1,29.23,0,26.51,26.51,0,0,0,3.3-1.6,18.27,18.27,0,0,0,4.52-3.56l11.21,3v4.81Z"/><path class="cls-16" d="M1212.35,229.18c-20-11.52-52.63-11.52-72.59,0s-20,30.38,0,41.91,52.62,11.52,72.58,0S1232.31,240.7,1212.35,229.18ZM1194,260.47c-9.85,5.69-26,5.69-35.82,0s-9.86-15,0-20.68,26-5.68,35.82,0S1203.82,254.79,1194,260.47Z"/></g></svg>